<svg width="112" height="35" viewBox="0 0 112 35" fill="none" xmlns="http://www.w3.org/2000/svg">
<path d="M14.9619 19.6826L6.78874 0.611328H0L14.8633 34.2719H15.1009L30.024 0.611328H23.1561L14.9619 19.6826Z" fill="black"/>
<path d="M75.5254 18.9292L56.6244 0H56.3076V33.4983H62.7205V15.0985L81.6604 34.0689H81.9578V0.529391H75.5254V18.9292Z" fill="black"/>
<path d="M94.7713 0.61138L85.4893 0.631562V33.4569H94.7713C105.083 33.4569 111.376 27.2625 111.376 17.0745C111.376 6.88644 105.083 0.590422 94.7713 0.61138ZM94.8109 26.876H91.882V7.15192H94.7519C101.065 7.15192 104.905 10.9011 104.905 17.0551C104.905 23.2091 101.086 26.876 94.8116 26.876H94.8109Z" fill="black"/>
<path d="M52.7764 14.166H33.5547V20.7943H52.7764V14.166Z" fill="black"/>
<path d="M52.7764 0.475586H33.5547V7.10384H52.7764V0.475586Z" fill="black"/>
<path d="M52.7764 27.8555H33.5547V34.4837H52.7764V27.8555Z" fill="black"/>
</svg>
